<svg width="64" height="64" viewBox="0 0 64 64" fill="none" xmlns="http://www.w3.org/2000/svg">
<g clip-path="url(#clip0_42_93)">
<path d="M31.7425 60.3518C47.5429 60.3518 60.3518 47.543 60.3518 31.7426C60.3518 15.9421 47.5429 3.1333 31.7425 3.1333C15.942 3.1333 3.13321 15.9421 3.13321 31.7426C3.13321 47.543 15.942 60.3518 31.7425 60.3518Z" stroke="#0096FF" stroke-width="2.26644" stroke-miterlimit="10"/>
<path d="M56.8943 32.9891C56.8796 32.997 49.2859 37.1548 43.2832 37.182C37.9888 37.2013 33.5375 33.7903 31.1226 32.9891C15.6836 27.8964 7.27286 37.6625 7.27286 37.6625L7.37145 38.1045C10.1898 48.9324 20.0318 56.925 31.7425 56.925C45.2323 56.925 56.2438 46.318 56.8943 32.9891Z" fill="#0096FF"/>
</g>
<defs>
<clipPath id="clip0_42_93">
<rect width="59.485" height="59.485" fill="white" transform="translate(2 2)"/>
</clipPath>
</defs>
</svg>
